# xmcd CD database file
#
# Track frame offsets:
#	183
#	19903
#	38938
#	59875
#	78060
#	100563
#	120920
#
# Disc length: 1888 seconds
#
# Revision: 0
# Processed by: cddbd v1.5.1PL0 Copyright (c) Steve Scherf et al.
# Submitted via: CDex 1.51
#
DISCID=4d075e07
DTITLE=Art Farmer Septet - Art Worker
DYEAR=1989
DGENRE=Jazz
TTITLE0=Delphine
TTITLE1=Stars
TTITLE2=Erwagung
TTITLE3=Orientierung
TTITLE4=Eau Sovage
TTITLE5=Gratuliere
TTITLE6=Ala Nova
EXTD=YEAR: 1989
EXTT0=
EXTT1=
EXTT2=
EXTT3=
EXTT4=
EXTT5=
EXTT6=
PLAYORDER=
